<?xml version="1.0" standalone="no"?>
<!DOCTYPE svg PUBLIC "-//W3C//DTD SVG 20010904//EN"
 "http://www.w3.org/TR/2001/REC-SVG-20010904/DTD/svg10.dtd">
<svg version="1.0" xmlns="http://www.w3.org/2000/svg"
 width="500.000000pt" height="500.000000pt" viewBox="0 0 500.000000 500.000000"
 preserveAspectRatio="xMidYMid meet">

<g transform="translate(0.000000,500.000000) scale(0.100000,-0.100000)"
fill="#000000" stroke="none">
<path d="M1895 3073 c-11 -10 -38 -31 -60 -47 -22 -17 -42 -33 -45 -36 -10
-12 -168 -103 -246 -141 -48 -23 -132 -52 -205 -70 -203 -49 -256 -68 -284
-100 -27 -33 -40 -86 -30 -121 12 -37 66 -88 130 -120 33 -17 72 -39 87 -50
26 -18 28 -18 57 0 l30 18 -32 26 c-18 14 -53 36 -77 48 -25 13 -64 36 -87 52
-36 24 -43 34 -43 61 0 18 4 37 8 43 11 17 145 57 281 84 84 16 235 84 358
161 62 39 113 75 113 80 0 5 6 9 13 9 8 0 22 9 32 20 27 30 33 25 40 -27 12
-99 16 -111 41 -139 l26 -28 16 29 c10 21 12 33 4 45 -5 9 -13 45 -17 81 -13
118 -59 169 -110 122z"/>
<path d="M2330 2961 c-12 -8 -12 -13 0 -36 8 -14 20 -23 27 -21 24 9 51 -30
58 -84 6 -41 12 -54 32 -63 19 -9 26 -8 34 4 16 25 -12 138 -44 174 -24 28
-83 42 -107 26z"/>
<path d="M1713 2809 l-93 -50 0 -44 c0 -42 2 -46 43 -65 23 -12 62 -34 87 -50
60 -38 74 -38 67 0 -8 38 0 38 74 -1 52 -28 74 -49 51 -49 -5 0 -34 -16 -66
-35 l-59 -35 -36 22 c-20 13 -49 30 -66 39 -24 13 -31 24 -33 53 -4 41 -8 43
-40 18 -19 -15 -23 -26 -20 -57 3 -37 6 -40 97 -92 53 -31 100 -52 109 -48 8
3 55 29 103 58 86 51 89 53 89 90 0 20 -5 37 -10 37 -6 0 -22 11 -35 25 -14
13 -25 22 -25 19 0 -3 -29 11 -65 31 l-65 37 0 -36 c0 -20 -3 -36 -6 -36 -4 0
-33 16 -66 36 -47 29 -57 39 -47 50 16 19 98 64 118 64 9 0 44 -18 79 -41 54
-34 61 -43 56 -63 -8 -32 10 -41 41 -20 19 13 25 25 25 53 0 32 -5 40 -32 54
-18 9 -62 32 -97 52 -35 19 -69 35 -75 35 -6 0 -53 -23 -103 -51z"/>
<path d="M1380 2396 c-59 -22 -135 -63 -170 -93 -48 -40 -110 -122 -110 -144
0 -11 -11 -32 -25 -47 -21 -22 -22 -28 -10 -30 16 -4 55 32 55 50 0 5 4 6 10
3 5 -3 20 5 32 18 13 13 43 46 68 72 28 30 72 61 117 82 84 40 120 43 372 30
161 -9 501 0 501 13 0 4 -8 17 -17 28 -17 19 -34 20 -403 25 -301 4 -393 3
-420 -7z"/>
<path d="M1376 2297 c-16 -12 -14 -17 18 -79 19 -37 38 -84 42 -103 3 -20 15
-42 25 -48 11 -7 19 -21 19 -32 1 -24 22 -55 39 -55 15 0 13 21 -4 44 -10 13
-13 32 -9 55 6 40 -29 139 -68 198 -25 36 -35 39 -62 20z"/>
</g>
</svg>
